<svg width="375" height="265" viewBox="0 0 375 265" fill="none" xmlns="http://www.w3.org/2000/svg">
<rect width="56.5093" height="10.9766" transform="matrix(0.681623 -0.731703 0.681623 0.731703 15 138.348)" fill="#D9D9D9"/>
<rect width="56.5093" height="10.9766" transform="matrix(0.681623 0.731703 -0.681623 0.731703 22.4819 97)" fill="#D9D9D9"/>
<path fill-rule="evenodd" clip-rule="evenodd" d="M347 259C362.464 259 375 245.792 375 229.5C375 213.208 362.464 200 347 200C331.536 200 319 213.208 319 229.5C319 245.792 331.536 259 347 259ZM346.736 246.991C356.802 246.991 364.962 239.277 364.962 229.761C364.962 220.245 356.802 212.531 346.736 212.531C336.67 212.531 328.509 220.245 328.509 229.761C328.509 239.277 336.67 246.991 346.736 246.991Z" fill="#D9D9D9"/>
<rect width="56.5093" height="10.9766" transform="matrix(0.471613 -0.881806 0.846214 0.532844 134.03 80.6806)" fill="#D9D9D9"/>
<rect width="56.5093" height="10.9766" transform="matrix(0.846214 0.532844 -0.471613 0.881806 130.679 38.7949)" fill="#D9D9D9"/>
<path fill-rule="evenodd" clip-rule="evenodd" d="M137.5 263C152.136 263 164 249.792 164 233.5C164 217.208 152.136 204 137.5 204C122.864 204 111 217.208 111 233.5C111 249.792 122.864 263 137.5 263ZM137.25 250.991C146.777 250.991 154.5 243.277 154.5 233.761C154.5 224.245 146.777 216.531 137.25 216.531C127.723 216.531 120 224.245 120 233.761C120 243.277 127.723 250.991 137.25 250.991Z" fill="#D9D9D9"/>
<path fill-rule="evenodd" clip-rule="evenodd" d="M278.5 97C293.136 97 305 83.7924 305 67.5C305 51.2076 293.136 38 278.5 38C263.864 38 252 51.2076 252 67.5C252 83.7924 263.864 97 278.5 97ZM278.25 84.9911C287.777 84.9911 295.5 77.277 295.5 67.7611C295.5 58.2451 287.777 50.531 278.25 50.531C268.723 50.531 261 58.2451 261 67.7611C261 77.277 268.723 84.9911 278.25 84.9911Z" fill="#D9D9D9"/>
<rect width="56.5093" height="10.9766" transform="matrix(0.92576 -0.378112 0.311638 0.950201 15.1326 223.158)" fill="#D9D9D9"/>
<rect width="56.5093" height="10.9766" transform="matrix(0.311638 0.950201 -0.92576 0.378112 39.2756 188.767)" fill="#D9D9D9"/>
<rect width="56.5093" height="10.9766" transform="matrix(0.92576 -0.378112 0.311638 0.950201 196.37 237.531)" fill="#D9D9D9"/>
<rect width="56.5093" height="10.9766" transform="matrix(0.311638 0.950201 -0.92576 0.378112 220.514 203.14)" fill="#D9D9D9"/>
<path fill-rule="evenodd" clip-rule="evenodd" d="M165.262 173.015C179.766 174.973 193.29 163.471 195.47 147.325C197.65 131.179 187.659 116.503 173.155 114.545C158.651 112.587 145.126 124.089 142.946 140.235C140.767 156.381 150.758 171.057 165.262 173.015ZM166.621 161.08C176.062 162.355 184.747 155.743 186.021 146.313C187.294 136.883 180.672 128.204 171.231 126.93C161.789 125.656 153.104 132.267 151.831 141.698C150.558 151.128 157.179 159.806 166.621 161.08Z" fill="#D9D9D9"/>
<rect width="56.5093" height="10.9766" transform="matrix(0.681623 -0.731703 0.681623 0.731703 276 174.348)" fill="#D9D9D9"/>
<rect width="56.5093" height="10.9766" transform="matrix(0.681623 0.731703 -0.681623 0.731703 283.482 133)" fill="#D9D9D9"/>
<rect width="56.5093" height="10.9766" transform="matrix(0.681623 -0.731703 0.681623 0.731703 319 51.3481)" fill="#D9D9D9"/>
<rect width="56.5093" height="10.9766" transform="matrix(0.681623 0.731703 -0.681623 0.731703 326.482 10)" fill="#D9D9D9"/>
<path fill-rule="evenodd" clip-rule="evenodd" d="M0 51.653C4.66794 56.2263 10.793 59 17.5 59C32.1355 59 44 45.7924 44 29.5C44 13.2076 32.1355 0 17.5 0C10.793 0 4.66794 2.77373 0 7.34695V29.7611V51.653ZM0 29.7611C0 39.277 7.72309 46.9911 17.25 46.9911C26.7769 46.9911 34.5 39.277 34.5 29.7611C34.5 20.2451 26.7769 12.531 17.25 12.531C7.72309 12.531 0 20.2451 0 29.7611Z" fill="#D9D9D9"/>
</svg>
